<svg id="SvgjsSvg1022" width="288" height="288" xmlns="http://www.w3.org/2000/svg" version="1.1" xmlns:xlink="http://www.w3.org/1999/xlink" xmlns:svgjs="http://svgjs.com/svgjs"><rect id="SvgjsRect1030" width="288" height="288" rx="0" ry="0" transform="matrix(1,0,0,1,0,0)" fill="#000000"></rect><defs id="SvgjsDefs1023"></defs><g id="SvgjsG1024" transform="matrix(0.8399999999999999,0,0,0.8399999999999999,23.04000000000002,23.04000000000002)"><svg xmlns="http://www.w3.org/2000/svg" viewBox="0 0 24 24" width="288" height="288"><path fill="#ffffff" d="M24 19.5V12a1.5 1.5 0 0 0-1.5-1.5h-3A1.5 1.5 0 0 0 18 12v7.5a1.5 1.5 0 0 0 1.5 1.5h3a1.5 1.5 0 0 0 1.5-1.5z" class="colorF44336 svgShape"></path><path fill="#ffffff" d="M13.5 21a1.5 1.5 0 0 0 1.5-1.5v-15A1.5 1.5 0 0 0 13.5 3h-3C9.673 3 9 3.672 9 4.5v15c0 .828.673 1.5 1.5 1.5h3z" class="color2196F3 svgShape"></path><path fill="#ffffff" d="M0 19.5c0 .828.673 1.5 1.5 1.5h3A1.5 1.5 0 0 0 6 19.5V9a1.5 1.5 0 0 0-1.5-1.5h-3C.673 7.5 0 8.172 0 9v10.5z" class="colorFFC107 svgShape"></path></svg></g></svg>